<svg xmlns="http://www.w3.org/2000/svg" width="98" height="32" viewBox="0 0 98 32"><path fill="#444" d="M16.552 12.287c-.363.117-.561.509-.444.873s.505.564.867.446c.364-.116.562-.508.445-.873s-.507-.564-.868-.447zM25.137 6.326c-.002.054-.057.15-.172.284-.29.339-3.449 3.875-4.629 5.086.514 1.328.513 3.596.33 5.798-.256 3.099-.663 4.347-2.335 5.299-1.673.953-6.281 1.078-8.585.508-2.305-.571-2.588-2.887-2.808-2.983-.901-.389-.789-1.81-.789-1.81.63-.031 1.262.763 1.262.763.253-.413 1.01-.793 1.01-.793.347 1.237-.379 1.65-.316 1.809.182.457 1.168 1.555 2.714.761 1.547-.793 1.61-2.95 1.705-5.617s.789-4.792 3.061-5.299c1.747-.39 3.016.05 3.584.323 1.568-1.162 5.147-3.731 5.463-3.953.137-.097.25-.163.334-.198h.168l.002.019v.001zm-9.224-6.326c-8.789 0-15.913 7.163-15.913 16s7.125 16 15.913 16c8.789 0 15.913-7.164 15.913-16s-7.125-16-15.913-16zM14.734 18.055c-.504.718-.655 1.385-.978 2.159-.263.628-.737.92-1.082 1.44-.29.438.642.596.901.601.679.014 1.431-.331 1.832-.871.55-.743.608-1.475.986-2.264.203-.423.824-1.233.862-1.62.068-.718-1.777-.503-2.521.554zM39.68 13.773v5.398h1.592c1.582 0 2.539-1.14 2.539-2.699 0-1.548-.957-2.699-2.539-2.699h-1.592zm-.895-.858h2.497c2.112 0 3.455 1.475 3.455 3.557s-1.342 3.557-3.455 3.557h-2.497v-7.114zM50.325 19.244c1.55 0 2.716-1.213 2.716-2.772 0-1.548-1.166-2.773-2.716-2.773-1.54 0-2.705 1.224-2.705 2.773 0 1.559 1.165 2.772 2.705 2.772zm0-6.434c2.071 0 3.642 1.58 3.642 3.662s-1.571 3.661-3.642 3.661-3.642-1.58-3.642-3.661c0-2.082 1.571-3.662 3.642-3.662zM61.396 19.642c-.531.314-1.176.492-1.863.492-2.071 0-3.642-1.58-3.642-3.661s1.571-3.662 3.642-3.662c.687 0 1.332.178 1.863.492v1.057c-.479-.408-1.124-.659-1.863-.659-1.54 0-2.705 1.224-2.705 2.773 0 1.559 1.155 2.772 2.705 2.772.739 0 1.394-.251 1.863-.649v1.046zM63.842 12.915h.895v3.484l2.643-3.484h1.072l-2.185 2.908 2.289 4.206h-1.061l-1.852-3.453-.905 1.14v2.312h-.895v-7.114zM72.176 16.88l-2.341-3.965h1.02l1.769 3.065 1.779-3.065h1.03l-2.362 3.976v3.139h-.895v-3.149zM78.17 17.173h2.268l-1.134-3.076-1.134 3.076zm2.56.868h-2.861l-.718 1.988h-1.009l2.664-7.114h1.009l2.664 7.114h-1.009l-.739-1.988zM86.64 13.773h-1.197v2.427h1.197c.739 0 1.301-.429 1.301-1.203s-.562-1.224-1.301-1.224zm-2.092-.858h2.091c1.322 0 2.227.743 2.227 1.998 0 1.025-.635 1.622-1.457 1.821.843.397 1.571 1.611 1.831 3.295h-.926c-.323-1.768-1.207-2.971-2.133-2.971h-.739v2.971h-.895v-7.114zM92.456 13.773v5.398h1.592c1.582 0 2.539-1.14 2.539-2.699 0-1.548-.957-2.699-2.539-2.699h-1.592zm-.894-.858h2.497c2.112 0 3.454 1.475 3.454 3.557s-1.342 3.557-3.454 3.557h-2.497v-7.114z"/></svg>