<?xml version="1.0" encoding="utf-8"?>
<!-- Generated by IcoMoon.io -->
<!DOCTYPE svg PUBLIC "-//W3C//DTD SVG 1.1//EN" "http://www.w3.org/Graphics/SVG/1.1/DTD/svg11.dtd">
<svg version="1.1" xmlns="http://www.w3.org/2000/svg" xmlns:xlink="http://www.w3.org/1999/xlink" width="98" height="32" viewBox="0 0 98 32">
<path fill="#444" d="M16.552 12.287c-0.363 0.117-0.561 0.509-0.444 0.873s0.505 0.564 0.867 0.446c0.364-0.116 0.562-0.508 0.445-0.873s-0.507-0.564-0.868-0.447z"></path>
<path fill="#444" d="M25.137 6.326c-0.002 0.054-0.057 0.15-0.172 0.284-0.29 0.339-3.449 3.875-4.629 5.086 0.514 1.328 0.513 3.596 0.33 5.798-0.256 3.099-0.663 4.347-2.335 5.299-1.673 0.953-6.281 1.078-8.585 0.508-2.305-0.571-2.588-2.887-2.808-2.983-0.901-0.389-0.789-1.81-0.789-1.81 0.63-0.031 1.262 0.763 1.262 0.763 0.253-0.413 1.010-0.793 1.010-0.793 0.347 1.237-0.379 1.65-0.316 1.809 0.182 0.457 1.168 1.555 2.714 0.761 1.547-0.793 1.61-2.95 1.705-5.617s0.789-4.792 3.061-5.299c1.747-0.39 3.016 0.050 3.584 0.323 1.568-1.162 5.147-3.731 5.463-3.953 0.137-0.097 0.25-0.163 0.334-0.198h0.168c0.002 0.006 0.003 0.012 0.002 0.019v0.001zM15.913 0c-8.789 0-15.913 7.163-15.913 16s7.125 16 15.913 16c8.789 0 15.913-7.164 15.913-16s-7.125-16-15.913-16v0z"></path>
<path fill="#444" d="M14.734 18.055c-0.504 0.718-0.655 1.385-0.978 2.159-0.263 0.628-0.737 0.92-1.082 1.44-0.29 0.438 0.642 0.596 0.901 0.601 0.679 0.014 1.431-0.331 1.832-0.871 0.55-0.743 0.608-1.475 0.986-2.264 0.203-0.423 0.824-1.233 0.862-1.62 0.068-0.718-1.777-0.503-2.521 0.554z"></path>
<path fill="#444" d="M39.68 13.773v5.398h1.592c1.582 0 2.539-1.14 2.539-2.699 0-1.548-0.957-2.699-2.539-2.699h-1.592zM38.785 12.915h2.497c2.112 0 3.455 1.475 3.455 3.557s-1.342 3.557-3.455 3.557h-2.497v-7.114z"></path>
<path fill="#444" d="M50.325 19.244c1.55 0 2.716-1.213 2.716-2.772 0-1.548-1.166-2.773-2.716-2.773-1.54 0-2.705 1.224-2.705 2.773 0 1.559 1.165 2.772 2.705 2.772zM50.325 12.81c2.071 0 3.642 1.58 3.642 3.662s-1.571 3.661-3.642 3.661-3.642-1.58-3.642-3.661c0-2.082 1.571-3.662 3.642-3.662z"></path>
<path fill="#444" d="M61.396 19.642c-0.531 0.314-1.176 0.492-1.863 0.492-2.071 0-3.642-1.58-3.642-3.661s1.571-3.662 3.642-3.662c0.687 0 1.332 0.178 1.863 0.492v1.057c-0.479-0.408-1.124-0.659-1.863-0.659-1.54 0-2.705 1.224-2.705 2.773 0 1.559 1.155 2.772 2.705 2.772 0.739 0 1.394-0.251 1.863-0.649v1.046z"></path>
<path fill="#444" d="M63.842 12.915h0.895v3.484l2.643-3.484h1.072l-2.185 2.908 2.289 4.206h-1.061l-1.852-3.453-0.905 1.14v2.312h-0.895v-7.114z"></path>
<path fill="#444" d="M72.176 16.88l-2.341-3.965h1.020l1.769 3.065 1.779-3.065h1.030l-2.362 3.976v3.139h-0.895v-3.149z"></path>
<path fill="#444" d="M78.17 17.173h2.268l-1.134-3.076-1.134 3.076zM80.73 18.041h-2.861l-0.718 1.988h-1.009l2.664-7.114h1.009l2.664 7.114h-1.009l-0.739-1.988z"></path>
<path fill="#444" d="M86.64 13.773h-1.197v2.427h1.197c0.739 0 1.301-0.429 1.301-1.203s-0.562-1.224-1.301-1.224v0zM84.548 12.915h2.091c1.322 0 2.227 0.743 2.227 1.998 0 1.025-0.635 1.622-1.457 1.821 0.843 0.397 1.571 1.611 1.831 3.295h-0.926c-0.323-1.768-1.207-2.971-2.133-2.971h-0.739v2.971h-0.895v-7.114z"></path>
<path fill="#444" d="M92.456 13.773v5.398h1.592c1.582 0 2.539-1.14 2.539-2.699 0-1.548-0.957-2.699-2.539-2.699h-1.592zM91.562 12.915h2.497c2.112 0 3.454 1.475 3.454 3.557s-1.342 3.557-3.454 3.557h-2.497v-7.114z"></path>
</svg>
