<?xml version="1.0" encoding="utf-8"?>
<!-- Generator: Adobe Illustrator 16.0.0, SVG Export Plug-In . SVG Version: 6.00 Build 0)  -->
<!DOCTYPE svg PUBLIC "-//W3C//DTD SVG 1.1//EN" "http://www.w3.org/Graphics/SVG/1.1/DTD/svg11.dtd">
<svg version="1.1" id="Layer_1" xmlns="http://www.w3.org/2000/svg" xmlns:xlink="http://www.w3.org/1999/xlink" x="0px" y="0px"
	 width="218px" height="50px" viewBox="0 0 218 50" enable-background="new 0 0 218 50" xml:space="preserve">
<g>
	<defs>
		<rect id="SVGID_1_" y="0.676" width="218" height="48.647"/>
	</defs>
	<clipPath id="SVGID_2_">
		<use xlink:href="#SVGID_1_"  overflow="visible"/>
	</clipPath>
	<g clip-path="url(#SVGID_2_)">
		<defs>
			<path id="SVGID_3_" d="M21.215,25.183l6.218-8.413l6.218,8.413l-6.218,8.413L21.215,25.183z M17.923,0.676L0,25.183
				l17.923,24.141h9.51h9.145l18.289-24.141L36.577,0.676H17.923z"/>
		</defs>
		<clipPath id="SVGID_4_">
			<use xlink:href="#SVGID_3_"  overflow="visible"/>
		</clipPath>
		
			<linearGradient id="SVGID_5_" gradientUnits="userSpaceOnUse" x1="0" y1="160.9756" x2="0.3027" y2="160.9756" gradientTransform="matrix(181.2081 0 0 -181.2081 0 29195.1562)">
			<stop  offset="0" style="stop-color:#D9DBDC"/>
			<stop  offset="0.0054" style="stop-color:#D9DBDC"/>
			<stop  offset="1" style="stop-color:#95979A"/>
		</linearGradient>
		<rect y="0.676" clip-path="url(#SVGID_4_)" fill="url(#SVGID_5_)" width="54.866" height="48.647"/>
	</g>
	<g clip-path="url(#SVGID_2_)">
		<defs>
			<polygon id="SVGID_6_" points="27.433,0.676 9.51,25.183 27.25,49.324 33.285,41.702 21.215,25.183 33.285,9.089 			"/>
		</defs>
		<clipPath id="SVGID_7_">
			<use xlink:href="#SVGID_6_"  overflow="visible"/>
		</clipPath>
		
			<linearGradient id="SVGID_8_" gradientUnits="userSpaceOnUse" x1="-0.2793" y1="161.376" x2="0.0234" y2="161.376" gradientTransform="matrix(78.5235 0 0 -78.5235 31.4375 12696.7979)">
			<stop  offset="0" style="stop-color:#E4E5E6"/>
			<stop  offset="0.22" style="stop-color:#E4E5E6"/>
			<stop  offset="1" style="stop-color:#ADAFB1"/>
		</linearGradient>
		<rect x="9.51" y="0.676" clip-path="url(#SVGID_7_)" fill="url(#SVGID_8_)" width="23.775" height="48.647"/>
	</g>
	<g clip-path="url(#SVGID_2_)">
		<defs>
			<polygon id="SVGID_9_" points="31.091,41.643 21.581,41.643 33.651,25.183 43.163,25.183 			"/>
		</defs>
		<clipPath id="SVGID_10_">
			<use xlink:href="#SVGID_9_"  overflow="visible"/>
		</clipPath>
		
			<linearGradient id="SVGID_11_" gradientUnits="userSpaceOnUse" x1="-0.6973" y1="161.7178" x2="-0.3945" y2="161.7178" gradientTransform="matrix(71.28 0 0 -71.28 71.25 11560.7295)">
			<stop  offset="0" style="stop-color:#E4E5E6"/>
			<stop  offset="1" style="stop-color:#ADAFB1"/>
		</linearGradient>
		<rect x="21.581" y="25.183" clip-path="url(#SVGID_10_)" fill="url(#SVGID_11_)" width="21.582" height="16.46"/>
	</g>
	<g clip-path="url(#SVGID_2_)">
		<defs>
			<rect id="SVGID_12_" y="0.676" width="218" height="48.647"/>
		</defs>
		<clipPath id="SVGID_13_">
			<use xlink:href="#SVGID_12_"  overflow="visible"/>
		</clipPath>
		<g opacity="0.7" clip-path="url(#SVGID_13_)" enable-background="new    ">
			<g>
				<defs>
					<rect id="SVGID_14_" y="25.183" width="36.577" height="24.141"/>
				</defs>
				<clipPath id="SVGID_15_">
					<use xlink:href="#SVGID_14_"  overflow="visible"/>
				</clipPath>
				<g clip-path="url(#SVGID_15_)">
					<defs>
						<polygon id="SVGID_16_" points="21.581,41.643 9.51,25.183 0,25.183 17.923,49.324 27.433,49.324 36.577,49.324 
							31.091,41.643 						"/>
					</defs>
					<clipPath id="SVGID_17_">
						<use xlink:href="#SVGID_16_"  overflow="visible"/>
					</clipPath>
					
						<linearGradient id="SVGID_18_" gradientUnits="userSpaceOnUse" x1="0" y1="161.3623" x2="0.3027" y2="161.3623" gradientTransform="matrix(120.8054 0 0 -120.8054 0 19530.7031)">
						<stop  offset="0" style="stop-color:#E4E5E6"/>
						<stop  offset="1" style="stop-color:#ADAFB1"/>
					</linearGradient>
					<rect y="25.183" clip-path="url(#SVGID_17_)" fill="url(#SVGID_18_)" width="36.577" height="24.141"/>
				</g>
			</g>
		</g>
		<g opacity="0.3" clip-path="url(#SVGID_13_)" enable-background="new    ">
			<g>
				<defs>
					<rect id="SVGID_19_" x="21.581" y="8.723" width="21.58" height="16.46"/>
				</defs>
				<clipPath id="SVGID_20_">
					<use xlink:href="#SVGID_19_"  overflow="visible"/>
				</clipPath>
				<g clip-path="url(#SVGID_20_)">
					<defs>
						<polygon id="SVGID_21_" points="43.161,25.183 31.091,8.723 21.581,8.723 33.651,25.183 						"/>
					</defs>
					<clipPath id="SVGID_22_">
						<use xlink:href="#SVGID_21_"  overflow="visible"/>
					</clipPath>
					
						<linearGradient id="SVGID_23_" gradientUnits="userSpaceOnUse" x1="-0.6973" y1="161.1865" x2="-0.394" y2="161.1865" gradientTransform="matrix(71.2752 0 0 -71.2752 71.25 11505.5791)">
						<stop  offset="0" style="stop-color:#E4E5E6"/>
						<stop  offset="1" style="stop-color:#ADAFB1"/>
					</linearGradient>
					<rect x="21.581" y="8.723" clip-path="url(#SVGID_22_)" fill="url(#SVGID_23_)" width="21.58" height="16.459"/>
				</g>
			</g>
		</g>
	</g>
	<g clip-path="url(#SVGID_2_)">
		<defs>
			<polygon id="SVGID_24_" points="17.923,0.676 0,25.183 9.51,25.183 21.581,8.723 31.091,8.723 36.577,0.676 			"/>
		</defs>
		<clipPath id="SVGID_25_">
			<use xlink:href="#SVGID_24_"  overflow="visible"/>
		</clipPath>
		
			<linearGradient id="SVGID_26_" gradientUnits="userSpaceOnUse" x1="0" y1="160.8994" x2="0.3027" y2="160.8994" gradientTransform="matrix(120.8054 0 0 -120.8054 0 19450.3906)">
			<stop  offset="0" style="stop-color:#E4E5E6"/>
			<stop  offset="1" style="stop-color:#ADAFB1"/>
		</linearGradient>
		<rect y="0.676" clip-path="url(#SVGID_25_)" fill="url(#SVGID_26_)" width="36.577" height="24.506"/>
	</g>
	<g clip-path="url(#SVGID_2_)">
		<defs>
			<polygon id="SVGID_27_" points="36.577,0.676 31.091,8.723 43.163,25.183 31.091,41.643 36.577,49.324 54.866,25.183 			"/>
		</defs>
		<clipPath id="SVGID_28_">
			<use xlink:href="#SVGID_27_"  overflow="visible"/>
		</clipPath>
		
			<linearGradient id="SVGID_29_" gradientUnits="userSpaceOnUse" x1="-0.9116" y1="161.376" x2="-0.6089" y2="161.376" gradientTransform="matrix(78.5235 0 0 -78.5235 102.6875 12696.7979)">
			<stop  offset="0" style="stop-color:#E4E5E6"/>
			<stop  offset="1" style="stop-color:#ADAFB1"/>
		</linearGradient>
		<rect x="31.091" y="0.676" clip-path="url(#SVGID_28_)" fill="url(#SVGID_29_)" width="23.775" height="48.647"/>
	</g>
	<g clip-path="url(#SVGID_2_)">
		<defs>
			<rect id="SVGID_30_" y="0.676" width="218" height="48.647"/>
		</defs>
		<clipPath id="SVGID_31_">
			<use xlink:href="#SVGID_30_"  overflow="visible"/>
		</clipPath>
		<path clip-path="url(#SVGID_31_)" fill="#FFFFFF" d="M84.859,36.887c-1.889,1.89-4.575,3.292-7.681,3.292H65.474V9.455h11.704
			c3.106,0,5.792,1.037,7.681,2.926c3.233,3.232,3.292,7.745,3.292,12.069C88.151,28.774,88.092,33.655,84.859,36.887
			 M81.567,15.752c-1.259-1.386-2.614-1.908-4.755-1.908h-6.218V35.79h6.218c2.142,0,3.496-1.385,4.755-2.771
			c1.553-1.721,1.463-4.729,1.463-8.844C83.03,20.062,83.121,17.473,81.567,15.752"/>
		<rect x="91.808" y="9.455" clip-path="url(#SVGID_31_)" fill="#FFFFFF" width="5.121" height="30.725"/>
		<polygon clip-path="url(#SVGID_31_)" fill="#FFFFFF" points="113.755,40.18 110.463,40.18 100.587,9.455 105.708,9.455 
			112.292,31.035 118.876,9.455 123.997,9.455 		"/>
		<polygon clip-path="url(#SVGID_31_)" fill="#FFFFFF" points="164.597,40.18 164.597,26.646 153.624,26.646 153.624,40.18 
			148.503,40.18 148.503,9.455 153.624,9.455 153.624,22.988 164.597,22.988 164.597,9.455 169.718,9.455 169.718,40.18 		"/>
		<path clip-path="url(#SVGID_31_)" fill="#FFFFFF" d="M192.762,36.887c-2.058,2.057-4.857,3.292-8.047,3.292
			s-5.624-1.601-7.681-3.658c-2.938-2.938-3.657-5.954-3.657-11.705c0-5.751,0.719-9.131,3.657-12.07
			c2.057-2.058,4.491-3.292,7.681-3.292s5.99,1.235,8.047,3.292c2.938,2.938,3.292,6.319,3.292,12.07
			C196.054,30.568,195.7,33.949,192.762,36.887 M189.104,15.673c-1.049-1.134-2.626-2.194-4.39-2.194s-3.339,0.695-4.389,1.829
			c-1.469,1.595-1.83,3.507-1.83,9.51c0,6.003,0.36,7.549,1.83,9.145c1.049,1.134,2.625,1.829,4.389,1.829s3.34-0.695,4.39-1.829
			c1.47-1.595,1.829-3.141,1.829-9.145C190.933,18.814,190.574,17.269,189.104,15.673"/>
		<polygon clip-path="url(#SVGID_31_)" fill="#FFFFFF" points="210.318,13.844 210.318,40.18 205.198,40.18 205.198,13.844 
			197.517,13.844 197.517,9.455 218,9.455 218,13.844 		"/>
		<path clip-path="url(#SVGID_31_)" fill="#FFFFFF" d="M142.285,24.817c-1.259-1.134-2.716-1.775-5.487-2.195l-3.356-0.364
			c-1.386-0.21-2.472-0.793-3.228-1.465c-0.798-0.713-1.264-1.6-1.264-2.691c0-2.645,1.931-4.66,5.458-4.66
			c2.519,0,4.659,0.546,6.507,2.309l2.833-3.005c-2.561-2.393-5.198-3.292-9.144-3.292c-3.054,0-5.597,1.066-7.315,2.561
			l-2.561,8.047c0.284,1.562,0.757,3.013,1.829,4.024c1.302,1.217,3.417,1.858,5.852,2.194l3.658,0.731
			c1.764,0.252,2.536,0.384,3.292,1.097c0.798,0.714,1.097,1.991,1.097,3.292c0,2.896-2.313,4.389-6.218,4.389
			c-3.064,0-5.498-0.743-7.681-2.926l-2.561,2.926c2.855,2.896,5.75,4.389,10.242,4.389c6.255,0,10.607-3.645,10.607-9.145
			C144.846,28.475,143.922,26.245,142.285,24.817"/>
	</g>
</g>
</svg>
