<?xml version="1.0" encoding="utf-8"?>
<!-- Generator: Adobe Illustrator 16.0.0, SVG Export Plug-In . SVG Version: 6.00 Build 0)  -->
<!DOCTYPE svg PUBLIC "-//W3C//DTD SVG 1.1//EN" "http://www.w3.org/Graphics/SVG/1.1/DTD/svg11.dtd">
<svg version="1.1" id="Layer_1" xmlns="http://www.w3.org/2000/svg" xmlns:xlink="http://www.w3.org/1999/xlink" x="0px" y="0px"
	 width="278px" height="90px" viewBox="0 0 278 90" enable-background="new 0 0 278 90" xml:space="preserve">
<g>
	<path fill="#FFFFFF" d="M47.961,34.559c-1.028,0.329-1.587,1.431-1.255,2.456s1.429,1.586,2.452,1.254
		c1.028-0.328,1.59-1.43,1.257-2.455C50.084,34.79,48.983,34.228,47.961,34.559"/>
	<path fill="#FFFFFF" d="M46.154,0c-24.853,0-45,20.147-45,45s20.147,45,45,45c24.852,0,45-20.147,45-45S71.006,0,46.154,0
		 M72.237,17.793c-0.007,0.151-0.161,0.421-0.485,0.799C70.934,19.545,62,29.491,58.663,32.898
		c1.453,3.734,1.45,10.112,0.934,16.307c-0.725,8.716-1.874,12.228-6.602,14.903c-4.731,2.679-17.763,3.032-24.276,1.43
		c-6.518-1.605-7.318-8.121-7.94-8.388c-2.548-1.094-2.232-5.091-2.232-5.091c1.782-0.086,3.568,2.146,3.568,2.146
		c0.716-1.163,2.857-2.232,2.857-2.232c0.982,3.48-1.072,4.641-0.895,5.087c0.515,1.286,3.301,4.373,7.674,2.141
		c4.376-2.229,4.554-8.297,4.822-15.796c0.267-7.498,2.231-13.478,8.654-14.903c4.941-1.098,8.53,0.142,10.135,0.909
		c4.436-3.269,14.555-10.493,15.449-11.118c0.388-0.274,0.707-0.458,0.943-0.556h0.476c0.005,0.016,0.008,0.033,0.007,0.053V17.793z
		"/>
	<path fill="#FFFFFF" d="M42.82,50.778c-1.427,2.019-1.854,3.896-2.767,6.073c-0.743,1.767-2.084,2.587-3.061,4.05
		c-0.819,1.231,1.814,1.675,2.548,1.69c1.92,0.04,4.046-0.931,5.181-2.45c1.554-2.088,1.72-4.148,2.79-6.366
		c0.573-1.189,2.329-3.468,2.437-4.556C50.141,47.201,44.923,47.806,42.82,50.778"/>
	<g>
		<path fill="#FFFFFF" d="M110.832,36.323h7.062c5.973,0,9.769,4.149,9.769,10.004c0,5.855-3.796,10.004-9.769,10.004h-7.062V36.323
			z M113.363,38.736v15.183h4.501c4.473,0,7.181-3.207,7.181-7.591c0-4.355-2.708-7.591-7.181-7.591H113.363z"/>
	</g>
	<g>
		<path fill="#FFFFFF" d="M143.465,36.029c5.855,0,10.299,4.443,10.299,10.299c0,5.855-4.443,10.298-10.299,10.298
			s-10.299-4.443-10.299-10.298C133.166,40.472,137.609,36.029,143.465,36.029z M143.465,54.125c4.384,0,7.68-3.414,7.68-7.798
			c0-4.355-3.296-7.798-7.68-7.798c-4.354,0-7.65,3.443-7.65,7.798C135.814,50.712,139.11,54.125,143.465,54.125z"/>
		<path fill="#FFFFFF" d="M174.771,55.243c-1.501,0.883-3.325,1.383-5.267,1.383c-5.855,0-10.298-4.443-10.298-10.298
			c0-5.855,4.442-10.299,10.298-10.299c1.941,0,3.766,0.5,5.267,1.383v2.972c-1.353-1.148-3.177-1.854-5.267-1.854
			c-4.354,0-7.65,3.443-7.65,7.798c0,4.384,3.267,7.798,7.65,7.798c2.09,0,3.942-0.707,5.267-1.825V55.243z"/>
		<path fill="#FFFFFF" d="M181.688,36.323h2.53v9.798l7.474-9.798h3.03l-6.179,8.18l6.474,11.828h-3.001l-5.237-9.709l-2.561,3.207
			v6.502h-2.53V36.323z"/>
		<path fill="#FFFFFF" d="M205.227,47.475l-6.619-11.152h2.883l5.003,8.622l5.03-8.622h2.913l-6.679,11.182v8.827h-2.531V47.475z"/>
		<path fill="#FFFFFF" d="M229.414,50.741h-8.092l-2.03,5.59h-2.854l7.533-20.008h2.854l7.533,20.008h-2.854L229.414,50.741z
			 M222.176,48.299h6.415l-3.208-8.65L222.176,48.299z"/>
		<path fill="#FFFFFF" d="M240.184,36.323h5.915c3.736,0,6.296,2.089,6.296,5.62c0,2.883-1.795,4.561-4.119,5.12
			c2.383,1.118,4.442,4.531,5.179,9.268h-2.619c-0.912-4.973-3.413-8.356-6.031-8.356h-2.09v8.356h-2.53V36.323z M246.099,38.736
			h-3.385v6.827h3.385c2.089,0,3.677-1.207,3.677-3.384S248.188,38.736,246.099,38.736z"/>
		<path fill="#FFFFFF" d="M260.016,36.323h7.062c5.973,0,9.768,4.149,9.768,10.004c0,5.855-3.795,10.004-9.768,10.004h-7.062V36.323
			z M262.547,38.736v15.183h4.501c4.473,0,7.18-3.207,7.18-7.591c0-4.355-2.707-7.591-7.18-7.591H262.547z"/>
	</g>
</g>
</svg>
