<svg version="1.1" id="Layer_1" xmlns="http://www.w3.org/2000/svg" xmlns:xlink="http://www.w3.org/1999/xlink" x="0px" y="0px"
	 width="993px" height="146.3px" viewBox="0 0 993 146.3" enable-background="new 0 0 993 146.3" xml:space="preserve">
<g>
	<g>
		<path fill="#F9F9F9" d="M238,79.4h33.6v42.4c-12.3,5.4-24.6,8-36.7,8c-16.6,0-29.8-4.8-39.7-14.5c-9.9-9.7-14.9-21.6-14.9-35.8
			c0-15,5.1-27.4,15.4-37.3c10.3-9.9,23.1-14.9,38.6-14.9c5.6,0,11,0.6,16.1,1.8c5.1,1.2,11.5,3.5,19.2,6.7v14.6
			C257.7,43.5,245.9,40,234.1,40c-10.9,0-20.2,3.7-27.7,11.2c-7.5,7.5-11.3,16.6-11.3,27.4c0,11.4,3.8,20.7,11.3,27.9
			c7.5,7.2,17.2,10.8,29,10.8c5.7,0,12.6-1.3,20.6-3.9l1.4-0.4V92.1H238V79.4z"/>
		<path fill="#F9F9F9" d="M293,128.7V28.6h25.1c10.1,0,18.2,2.5,24.1,7.5c5.9,5,8.9,11.8,8.9,20.4c0,5.8-1.5,10.9-4.4,15.1
			c-2.9,4.3-7.1,7.4-12.5,9.5c3.2,2.1,6.3,5,9.4,8.6c3.1,3.6,7.4,10,12.9,19c3.5,5.7,6.3,10,8.4,12.8l5.3,7.2h-17.1l-4.4-6.6
			c-0.1-0.2-0.4-0.6-0.9-1.2l-2.8-3.9l-4.4-7.3l-4.8-7.8c-3-4.1-5.7-7.4-8.1-9.8c-2.5-2.4-4.7-4.2-6.7-5.3c-2-1.1-5.3-1.6-10-1.6
			h-3.7v43.6H293z M311.6,40.7h-4.3v31.6h5.4c7.3,0,12.2-0.6,14.9-1.9c2.7-1.2,4.8-3.1,6.3-5.6c1.5-2.5,2.3-5.4,2.3-8.6
			c0-3.2-0.8-6-2.5-8.6c-1.7-2.6-4-4.4-7.1-5.4C323.7,41.3,318.7,40.7,311.6,40.7z"/>
		<path fill="#F9F9F9" d="M381.2,28.6H438v12.8h-42.4v30.5h41v12.8h-41v31.1h43.8v12.8h-58.1V28.6z"/>
		<path fill="#F9F9F9" d="M454.6,28.6h56.8v12.8H469v30.5h41v12.8h-41v31.1h43.8v12.8h-58.1V28.6z"/>
		<path fill="#F9F9F9" d="M607.6,28.6h13.6v100.1h-12.3l-66.9-77.1v77.1h-13.5V28.6H540l67.5,77.8V28.6z"/>
		<path fill="#F9F9F9" d="M642.7,28.6h53.4v12.8h-39.1v28h39.1V82h-39.1v46.7h-14.3V28.6z"/>
		<path fill="#F9F9F9" d="M719,28.6h14.3v100.1H719V28.6z"/>
		<path fill="#F9F9F9" d="M755.5,28.6h56.8v12.8h-42.4v30.5h41v12.8h-41v31.1h43.8v12.8h-58.1V28.6z"/>
		<path fill="#F9F9F9" d="M828.9,28.6h14.3v87.1h45.1v13h-59.4V28.6z"/>
		<path fill="#F9F9F9" d="M901,128.5v-100h33.8c13.6,0,24.4,2,32.3,6.1c7.9,4.1,14.2,10.1,18.9,18c4.7,7.9,7,16.6,7,25.9
			c0,6.7-1.3,13.1-3.9,19.2c-2.6,6.1-6.3,11.5-11,16.1c-4.9,4.8-10.5,8.4-17,10.8c-3.8,1.5-7.2,2.5-10.4,3
			c-3.2,0.5-9.2,0.8-18.1,0.8H901z M933.2,41.3h-17.9v74.5h18.3c7.2,0,12.7-0.5,16.7-1.5c4-1,7.3-2.2,9.9-3.7
			c2.7-1.5,5.1-3.4,7.3-5.6c7.1-7.2,10.6-16.2,10.6-27.2c0-10.8-3.6-19.5-10.9-26.3c-2.7-2.5-5.7-4.6-9.2-6.2
			c-3.5-1.6-6.7-2.7-9.9-3.2C945.1,41.6,940.1,41.3,933.2,41.3z"/>
	</g>
	<g>
		<polygon fill="#FFFFFF" points="0.5,49.9 52.5,70.2 145.8,49.9 145.8,0.5 0.5,0.5 		"/>
		<g>
			<polygon fill="#CBCBCB" points="0.5,145.8 145.8,145.8 145.8,119.7 0.5,88.2 			"/>
			<polygon fill="#DCDCDC" points="19.9,92.4 145.8,75.8 145.8,119.7 			"/>
			<polygon fill="#A8A8A8" points="0.5,49.9 86.7,83.6 19.9,92.4 0.5,88.2 			"/>
			<polygon fill="#565656" points="52.5,70.2 145.8,49.9 145.8,75.8 86.7,83.6 			"/>
			<rect x="0.5" y="0.5" fill="none" stroke="#060606" stroke-miterlimit="10" width="145.3" height="145.3"/>
		</g>
	</g>
</g>
</svg>
