<?xml version="1.0" encoding="utf-8"?>
<!-- Generator: Adobe Illustrator 16.0.0, SVG Export Plug-In . SVG Version: 6.00 Build 0)  -->
<!DOCTYPE svg PUBLIC "-//W3C//DTD SVG 1.1//EN" "http://www.w3.org/Graphics/SVG/1.1/DTD/svg11.dtd">
<svg version="1.1" id="Layer_1" xmlns="http://www.w3.org/2000/svg" xmlns:xlink="http://www.w3.org/1999/xlink" x="0px" y="0px"
	 width="218px" height="14px" viewBox="0 0 218 14" enable-background="new 0 0 218 14" xml:space="preserve">
<g>
	<path fill="#FFFFFF" d="M0.076,11.742c-0.066-0.064-0.132-0.197,0-0.328l1.517-1.582c0.066-0.066,0.198-0.066,0.264,0
		c0.856,0.658,2.108,1.318,3.493,1.318c1.383,0,2.174-0.594,2.174-1.516c0-0.725-0.461-1.186-2.042-1.383L4.756,8.186
		C1.988,7.725,0.471,6.539,0.471,4.364c0-2.306,1.846-3.822,4.746-3.822c1.778,0,3.427,0.526,4.546,1.318
		C9.896,1.927,9.896,1.992,9.83,2.124L8.644,3.771C8.578,3.837,8.445,3.903,8.379,3.837C7.391,3.244,6.403,2.915,5.283,2.915
		c-1.188,0-1.78,0.593-1.78,1.383c0,0.727,0.527,1.188,2.109,1.385l0.725,0.066c2.768,0.329,4.217,1.515,4.217,3.755
		c0,2.238-1.778,3.955-5.205,3.955C3.108,13.459,1.066,12.664,0.076,11.742"/>
	<path fill="#FFFFFF" d="M13.454,10.293c-0.263-0.855-0.395-1.58-0.395-3.425c0-1.844,0.066-2.57,0.395-3.427
		c0.659-2.042,2.503-3.031,4.876-3.031c2.307,0,4.152,0.989,4.876,3.031c0.263,0.856,0.395,1.583,0.395,3.427
		c0,1.845-0.066,2.569-0.395,3.425c-0.659,2.043-2.503,3.033-4.876,3.033C15.958,13.326,14.113,12.27,13.454,10.293 M20.374,9.568
		c0.131-0.461,0.197-1.053,0.197-2.7c0-1.646-0.066-2.24-0.197-2.702c-0.265-0.856-0.99-1.383-2.109-1.383
		c-1.12,0-1.779,0.526-2.11,1.383c-0.131,0.462-0.197,1.056-0.197,2.702c0,1.647,0.066,2.239,0.197,2.7
		c0.264,0.857,0.99,1.385,2.11,1.385C19.384,10.953,20.109,10.426,20.374,9.568"/>
	<path fill="#FFFFFF" d="M26.041,7c0-1.91,0.066-2.57,0.395-3.36c0.725-2.043,2.439-3.098,4.745-3.098
		c2.241,0,3.888,1.055,4.678,2.768c0.067,0.066,0,0.198-0.066,0.198L33.685,4.43c-0.132,0.066-0.198,0-0.264-0.065
		c-0.395-0.791-0.988-1.384-2.109-1.384c-1.054,0-1.712,0.527-1.976,1.384c-0.132,0.461-0.198,0.924-0.198,2.702
		c0,1.777,0.066,2.238,0.198,2.699c0.264,0.857,0.988,1.385,1.976,1.385c1.122,0,1.714-0.594,2.109-1.385
		c0.066-0.131,0.132-0.131,0.264-0.064l2.108,0.922c0.133,0.066,0.133,0.131,0.066,0.197c-0.725,1.779-2.372,2.77-4.678,2.77
		c-2.306,0-4.02-1.057-4.745-3.1C26.106,9.568,26.041,8.91,26.041,7"/>
	<path fill="#FFFFFF" d="M39.154,0.937c0-0.132,0.065-0.197,0.197-0.197h2.505c0.132,0,0.197,0.065,0.197,0.197v12.126
		c0,0.133-0.065,0.199-0.197,0.199h-2.505c-0.132,0-0.197-0.066-0.197-0.199V0.937z"/>
	<path fill="#FFFFFF" d="M46.139,0.937c0-0.132,0.065-0.197,0.197-0.197h8.566c0.132,0,0.198,0.065,0.198,0.197v1.979
		c0,0.132-0.066,0.197-0.198,0.197H49.17c-0.065,0-0.132,0.066-0.132,0.132v2.438c0,0.066,0.066,0.132,0.132,0.132h4.744
		c0.132,0,0.198,0.066,0.198,0.198v1.976c0,0.131-0.066,0.197-0.198,0.197h-4.81c-0.066,0-0.132,0.066-0.132,0.131v2.57
		c0,0.066,0.065,0.131,0.132,0.131h5.732c0.132,0,0.197,0.066,0.197,0.197v1.98c0,0.131-0.065,0.197-0.197,0.197h-8.566
		c-0.132,0-0.198-0.066-0.198-0.197V0.937H46.139z"/>
	<path fill="#FFFFFF" d="M61.756,13.195c-0.132,0-0.197-0.066-0.197-0.197V3.244c0-0.065-0.065-0.132-0.132-0.132h-3.361
		c-0.065,0-0.197-0.065-0.197-0.132V0.937c0-0.132,0.066-0.197,0.197-0.197h9.886c0.132,0,0.197,0.065,0.197,0.197V2.98
		c0,0.132-0.065,0.198-0.197,0.198H64.59c-0.065,0-0.132,0.065-0.132,0.131v9.819c0,0.133-0.065,0.197-0.197,0.197h-2.505V13.195z"
		/>
	<path fill="#FFFFFF" d="M74.145,13.195c-0.132,0-0.197-0.066-0.197-0.197V8.186l-3.954-7.314c-0.065-0.066,0-0.197,0.132-0.197
		h2.57c0.132,0,0.264,0.065,0.264,0.197l2.438,4.549h0.066l2.438-4.549c0.065-0.132,0.131-0.197,0.263-0.197h2.505
		c0.132,0,0.197,0.065,0.132,0.197l-3.954,7.314v4.812c0,0.131-0.065,0.197-0.197,0.197H74.145z"/>
	<path fill="#FFFFFF" d="M105.644,6.935c0-1.845,0.066-2.57,0.396-3.427c0.658-2.042,2.505-3.032,4.875-3.032
		c2.503,0,4.087,1.188,4.746,2.637c0.065,0.132,0.065,0.197-0.066,0.264l-2.11,0.856c-0.132,0.065-0.264,0-0.264-0.066
		c-0.527-0.856-1.186-1.317-2.306-1.317s-1.844,0.527-2.108,1.384c-0.131,0.461-0.197,1.056-0.197,2.636
		c0,1.647,0.066,2.239,0.197,2.7c0.264,0.857,0.988,1.385,2.173,1.385c0.988,0,1.845-0.463,2.108-1.318
		c0.065-0.33,0.132-0.725,0.132-1.252c0-0.066-0.066-0.131-0.132-0.131h-1.778c-0.132,0-0.198-0.066-0.198-0.197V6.275
		c0-0.131,0.066-0.197,0.198-0.197h4.614c0.131,0,0.197,0.066,0.197,0.197V7.33c0,1.119-0.066,2.107-0.329,2.832
		c-0.659,1.977-2.507,3.1-4.878,3.1c-2.371,0-4.217-0.992-4.875-3.033C105.71,9.504,105.644,8.779,105.644,6.935"/>
	<path fill="#FFFFFF" d="M127.323,13.195c-0.197,0-0.264-0.066-0.264-0.197l-2.306-4.549h-1.778c-0.065,0-0.132,0.066-0.132,0.131
		v4.482c0,0.133-0.065,0.199-0.197,0.199h-2.503c-0.132,0-0.198-0.066-0.198-0.199V0.871c0-0.132,0.066-0.197,0.198-0.197h5.335
		c2.701,0,4.546,1.582,4.546,3.888c0,1.583-0.923,2.834-2.372,3.493l2.635,4.943c0.066,0.131,0,0.197-0.132,0.197H127.323z
		 M127.126,4.562c0-0.922-0.725-1.515-1.779-1.515h-2.371c-0.065,0-0.132,0.065-0.132,0.132v2.899c0,0.066,0.066,0.132,0.132,0.132
		h2.371C126.401,6.145,127.126,5.485,127.126,4.562"/>
	<path fill="#FFFFFF" d="M133.781,10.359c-0.263-0.855-0.395-1.58-0.395-3.425s0.065-2.57,0.395-3.427
		c0.659-2.042,2.507-3.032,4.878-3.032c2.306,0,4.15,0.99,4.875,3.032c0.263,0.856,0.395,1.582,0.395,3.427
		s-0.065,2.569-0.395,3.425c-0.659,2.043-2.504,3.033-4.875,3.033S134.44,12.336,133.781,10.359 M140.768,9.635
		c0.132-0.461,0.197-1.055,0.197-2.7c0-1.646-0.065-2.241-0.197-2.702c-0.264-0.856-0.988-1.384-2.108-1.384
		s-1.778,0.527-2.107,1.384c-0.132,0.461-0.198,1.056-0.198,2.702c0,1.646,0.066,2.239,0.198,2.7
		c0.263,0.855,0.987,1.383,2.107,1.383C139.713,10.953,140.438,10.49,140.768,9.635"/>
	<path fill="#FFFFFF" d="M157.373,13.195c-0.132,0-0.197-0.066-0.264-0.197l-2.306-7.776h-0.065l-2.306,7.776
		c-0.065,0.131-0.132,0.197-0.264,0.197h-1.979c-0.132,0-0.198-0.066-0.264-0.197l-3.426-12.127c0-0.132,0-0.197,0.132-0.197h2.503
		c0.132,0,0.198,0.065,0.264,0.197l1.913,7.842h0.066l2.306-7.842c0.065-0.132,0.131-0.197,0.263-0.197h1.713
		c0.132,0,0.198,0.065,0.264,0.197l2.371,7.842h0.066l1.844-7.842c0-0.132,0.132-0.197,0.264-0.197h2.507
		c0.131,0,0.197,0.065,0.131,0.197l-3.428,12.127c0,0.131-0.132,0.197-0.264,0.197H157.373z"/>
	<path fill="#FFFFFF" d="M166.733,0.871c0-0.132,0.065-0.197,0.197-0.197h2.371c0.132,0,0.264,0.065,0.329,0.197l4.678,7.842h0.065
		V0.871c0-0.132,0.066-0.197,0.197-0.197h2.24c0.132,0,0.197,0.065,0.197,0.197v12.127c0,0.131-0.065,0.197-0.197,0.197h-2.306
		c-0.132,0-0.264-0.066-0.329-0.197l-4.743-7.842h-0.065v7.842c0,0.131-0.066,0.197-0.198,0.197h-2.239
		c-0.132,0-0.197-0.066-0.197-0.197V0.871z"/>
	<path fill="#FFFFFF" d="M181.096,8.58V0.871c0-0.132,0.066-0.197,0.198-0.197h2.506c0.132,0,0.197,0.065,0.197,0.197v7.775
		c0,1.516,0.856,2.307,2.24,2.307c1.317,0,2.239-0.857,2.239-2.307V0.871c0-0.132,0.066-0.197,0.198-0.197h2.503
		c0.132,0,0.197,0.065,0.197,0.197V8.58c0,3.098-2.107,4.812-5.072,4.812C183.272,13.393,181.096,11.678,181.096,8.58"/>
	<path fill="#FFFFFF" d="M195.792,13.195c-0.132,0-0.198-0.066-0.198-0.197V0.871c0-0.132,0.066-0.197,0.198-0.197h5.207
		c2.897,0,4.677,1.647,4.677,4.02c0,2.373-1.779,4.02-4.677,4.02h-2.372c-0.065,0-0.132,0.066-0.132,0.131v4.154
		c0,0.131-0.065,0.197-0.197,0.197H195.792z M202.711,4.693c0-0.988-0.725-1.713-1.976-1.713h-2.174
		c-0.066,0-0.132,0.066-0.132,0.132v3.163c0,0.066,0.065,0.132,0.132,0.132h2.174C201.986,6.342,202.711,5.683,202.711,4.693"/>
	<path fill="#FFFFFF" d="M207.52,11.678c-0.065-0.066-0.132-0.199,0-0.33l1.516-1.582c0.065-0.064,0.197-0.064,0.264,0
		c0.859,0.66,2.11,1.318,3.494,1.318c1.386,0,2.177-0.594,2.177-1.516c0-0.725-0.461-1.186-2.045-1.383L212.2,8.119
		c-2.701-0.328-4.219-1.514-4.219-3.755c0-2.306,1.847-3.822,4.745-3.822c1.782,0,3.429,0.461,4.549,1.318
		c0.132,0.066,0.132,0.132,0.065,0.264l-1.252,1.581c-0.065,0.066-0.197,0.132-0.263,0.066c-0.988-0.593-1.977-0.988-3.1-0.988
		c-1.186,0-1.778,0.593-1.778,1.383c0,0.727,0.527,1.188,2.108,1.385l0.728,0.066C216.551,5.946,218,7.132,218,9.371
		c0,2.24-1.779,3.955-5.207,3.955C210.553,13.393,208.574,12.6,207.52,11.678"/>
	<path fill="#FFFFFF" d="M87.324,8.646c-0.131-0.395-0.197-0.725-0.197-1.712c0-0.988,0.066-1.317,0.197-1.713
		c0.331-0.989,1.188-1.517,2.373-1.517s2.044,0.527,2.373,1.517c0.132,0.396,0.198,0.725,0.198,1.713
		c0,0.987-0.066,1.317-0.198,1.712c-0.329,0.988-1.188,1.516-2.373,1.516S87.655,9.635,87.324,8.646 M90.949,8.383
		c0.065-0.264,0.132-0.527,0.132-1.448c0-0.922-0.066-1.186-0.132-1.449c-0.197-0.527-0.593-0.792-1.252-0.792
		c-0.658,0-1.054,0.331-1.251,0.792c-0.066,0.197-0.132,0.527-0.132,1.449c0,0.856,0.065,1.185,0.132,1.448
		c0.197,0.527,0.593,0.791,1.251,0.791C90.356,9.174,90.751,8.844,90.949,8.383"/>
	<path fill="#FFFFFF" d="M94.507,3.903c0-0.066,0.065-0.066,0.065-0.066h4.218c0.065,0,0.065,0.066,0.065,0.066v0.79
		c0,0.065-0.065,0.065-0.065,0.065h-3.096c-0.066,0-0.066,0-0.066,0.066v1.582c0,0.066,0,0.066,0.066,0.066h2.568
		c0.066,0,0.066,0.065,0.066,0.065V7.33c0,0.065-0.066,0.065-0.066,0.065h-2.568c-0.066,0-0.066,0-0.066,0.066v2.437
		c0,0.066-0.065,0.066-0.132,0.066h-0.989c-0.066,0-0.066-0.066-0.066-0.066V3.903H94.507z"/>
</g>
</svg>
