<svg height="60" width="20" xmlns="http://www.w3.org/2000/svg" viewBox="0 0 20 60" enable-background="new 0 0 20 60"><path fill="#f26864" d="m19.262 30.19c.007-.021.011-.042.016-.063.004-.021.008-.042.01-.064.002-.021.002-.042.002-.063s0-.043-.002-.064c-.002-.021-.006-.042-.01-.063-.005-.021-.009-.042-.016-.063-.006-.02-.013-.039-.021-.058-.009-.022-.02-.044-.03-.066-.005-.008-.007-.016-.011-.023l-17.25-29.335c-.186-.317-.595-.424-.912-.237s-.424.595-.237.912l17.05 28.997-17.05 28.994c-.187.317-.081.727.237.912.106.063.222.093.337.093.229 0 .451-.118.575-.329l17.25-29.333c.004-.008.006-.016.011-.024.011-.021.021-.043.03-.066.008-.019.015-.038.021-.057"/></svg>
