<?xml version="1.0" encoding="utf-8"?>
<!-- Generator: Adobe Illustrator 16.0.0, SVG Export Plug-In . SVG Version: 6.00 Build 0)  -->
<!DOCTYPE svg PUBLIC "-//W3C//DTD SVG 1.1//EN" "http://www.w3.org/Graphics/SVG/1.1/DTD/svg11.dtd">
<svg version="1.1" xmlns="http://www.w3.org/2000/svg" xmlns:xlink="http://www.w3.org/1999/xlink" x="0px" y="0px" width="15px"
	 height="180px" viewBox="0 0 15 180" enable-background="new 0 0 15 180" xml:space="preserve">
<g id="location">
	<g>
		<path d="M10.096,5.712C9.733,4.369,8.375,3.51,7.01,3.779C6.077,3.962,5.413,4.502,5.029,5.371
			C4.79,5.915,4.742,6.479,4.915,7.056c0.102,0.346,0.244,0.675,0.404,0.998c0.275,0.561,0.596,1.094,0.929,1.619
			c0.344,0.542,0.719,1.062,1.092,1.583c0.052,0.073,0.104,0.148,0.16,0.225c0.01-0.015,0.019-0.023,0.027-0.029
			c0.125-0.173,0.248-0.348,0.373-0.521c0.517-0.714,1.002-1.45,1.438-2.219c0.242-0.431,0.469-0.869,0.644-1.331
			c0.088-0.231,0.161-0.467,0.192-0.712C10.215,6.344,10.179,6.027,10.096,5.712z M9.3,6.952C9.188,7.283,9.042,7.6,8.879,7.911
			c-0.402,0.767-0.868,1.496-1.364,2.206c-0.002,0.004-0.006,0.008-0.015,0.019c-0.027-0.04-0.052-0.073-0.077-0.106
			C6.983,9.394,6.566,8.744,6.2,8.062C6.008,7.708,5.829,7.348,5.702,6.964C5.629,6.752,5.583,6.537,5.594,6.311
			C5.631,5.548,6.15,4.862,6.877,4.614c1.102-0.375,2.269,0.3,2.494,1.442C9.432,6.363,9.4,6.658,9.3,6.952z"/>
		<path d="M8.283,6.385c0,0.432-0.35,0.781-0.781,0.781c-0.433,0-0.783-0.35-0.783-0.783c0-0.431,0.35-0.779,0.783-0.779
			C7.933,5.604,8.283,5.954,8.283,6.385z"/>
		<path d="M7.5,0.973c0.881,0,1.737,0.172,2.54,0.512c0.777,0.329,1.475,0.8,2.075,1.4s1.071,1.298,1.4,2.075
			c0.339,0.804,0.512,1.659,0.512,2.54c0,0.881-0.172,1.737-0.512,2.54c-0.33,0.777-0.8,1.475-1.4,2.075s-1.298,1.071-2.075,1.4
			c-0.804,0.339-1.658,0.512-2.54,0.512s-1.737-0.172-2.54-0.512c-0.777-0.33-1.475-0.8-2.075-1.4s-1.073-1.296-1.4-2.075
			C1.144,9.237,0.973,8.381,0.973,7.5c0-0.881,0.172-1.738,0.512-2.54c0.329-0.777,0.8-1.475,1.4-2.075s1.298-1.071,2.075-1.4
			C5.763,1.144,6.619,0.973,7.5,0.973 M7.5,0C3.358,0,0,3.358,0,7.5S3.358,15,7.5,15S15,11.642,15,7.5S11.642,0,7.5,0L7.5,0z"/>
	</g>
</g>
<g id="nav">
	<g>
		<g>
			<rect y="27.105" width="14.999" height="1.667"/>
		</g>
	</g>
	<g>
		<g>
			<rect y="21.661" width="14.999" height="1.667"/>
		</g>
	</g>
	<g>
		<g>
			<rect y="16.216" width="14.999" height="1.666"/>
		</g>
	</g>
</g>
<g id="github">
	<path fill-rule="evenodd" clip-rule="evenodd" d="M7.08,39.395c-0.01-0.029,0.005-0.061,0.033-0.07
		c0.028-0.01,0.06,0.006,0.069,0.033c0.043,0.121,0.159,0.204,0.289,0.204c0.129,0,0.245-0.083,0.289-0.204
		c0.009-0.027,0.041-0.043,0.069-0.033c0.028,0.01,0.043,0.041,0.032,0.07c-0.058,0.164-0.215,0.275-0.39,0.275
		S7.138,39.559,7.08,39.395"/>
	<path fill-rule="evenodd" clip-rule="evenodd" d="M9.322,37.141c0.371,0,0.672,0.434,0.672,0.969c0,0.533-0.301,0.967-0.672,0.967
		s-0.672-0.434-0.672-0.967C8.649,37.574,8.951,37.141,9.322,37.141"/>
	<path fill-rule="evenodd" clip-rule="evenodd" d="M7.471,39.137c-0.093,0-0.167-0.076-0.167-0.168c0-0.094,0.075-0.17,0.167-0.17
		c0.093,0,0.168,0.076,0.168,0.17C7.64,39.061,7.564,39.137,7.471,39.137"/>
	<path fill-rule="evenodd" clip-rule="evenodd" d="M5.715,39.076c-0.371,0-0.672-0.434-0.672-0.967c0-0.535,0.301-0.969,0.672-0.969
		c0.372,0,0.672,0.434,0.672,0.969C6.387,38.643,6.087,39.076,5.715,39.076"/>
	<path fill-rule="evenodd" clip-rule="evenodd" d="M7.5,30C3.358,30,0,33.357,0,37.5S3.358,45,7.5,45s7.5-3.357,7.5-7.5
		S11.642,30,7.5,30z M6.671,43.452c0,0-0.007,0.154-0.055,0.326c-0.096-0.014-0.192-0.026-0.287-0.044
		c0.073-0.11,0.125-0.243,0.125-0.427v-1.334c0,0-0.043-0.529,0.216-0.713V43.452z M4.231,38.01c0-0.412,0.203-0.796,0.551-1.114
		c0.581-0.53,1.564-0.249,2.679-0.249c1.111,0,2.09-0.284,2.672,0.243c0.353,0.319,0.559,0.704,0.559,1.12
		c0,1.939-1.446,1.994-3.23,1.994S4.231,39.734,4.231,38.01z M7.5,43.847c-0.069,0-0.135-0.008-0.204-0.01
		c0.05-0.117,0.088-0.251,0.096-0.421l0.017-2.217h0.182l0.018,2.217c0.007,0.17,0.045,0.304,0.095,0.421
		C7.635,43.839,7.569,43.847,7.5,43.847z M8.384,43.778c-0.047-0.172-0.055-0.326-0.055-0.326v-2.173
		c0.26,0.203,0.217,0.694,0.217,0.694v1.334c0,0.184,0.053,0.316,0.125,0.427C8.576,43.752,8.48,43.765,8.384,43.778z M9.333,43.575
		c-0.083-0.146-0.103-0.285-0.103-0.285v-1.749c0-0.682-0.307-1.016-0.568-1.234c3.179,0,3.072-2.818,3.072-3.38
		c0-0.804-0.302-1.448-0.793-1.938c0.085-0.277,0.2-0.893-0.115-1.679c0,0-0.555-0.177-1.812,0.664
		C8.524,33.851,8,33.789,7.475,33.789c-0.577,0-1.16,0.074-1.704,0.224c-1.296-0.884-1.868-0.703-1.868-0.703
		c-0.374,0.935-0.143,1.625-0.073,1.798c-0.439,0.473-0.707,1.078-0.707,1.819c0,1.343,0.395,3.378,3.219,3.378
		c-0.201,0.17-0.44,0.395-0.531,0.816c-0.296,0.141-1.236,0.488-1.8-0.481c0,0-0.316-0.577-0.92-0.622c0,0-0.586-0.01-0.041,0.365
		c0,0,0.393,0.186,0.663,0.879c0,0,0.353,1.185,2.056,0.805v1.224c0,0-0.021,0.139-0.103,0.285c-2.61-0.786-4.513-3.207-4.513-6.075
		c0-3.504,2.841-6.346,6.346-6.346c3.505,0,6.346,2.842,6.346,6.346C13.846,40.368,11.944,42.789,9.333,43.575z"/>
</g>
<g id="twitter">
	<path d="M15,48.048c-0.552,0.245-1.146,0.41-1.769,0.484c0.636-0.381,1.124-0.983,1.354-1.702
		c-0.595,0.353-1.253,0.608-1.955,0.746c-0.562-0.598-1.362-0.972-2.246-0.972c-1.699,0-3.077,1.379-3.077,3.078
		c0,0.241,0.027,0.476,0.08,0.701c-2.558-0.129-4.825-1.354-6.343-3.215c-0.265,0.454-0.416,0.982-0.416,1.547
		c0,1.067,0.509,2.009,1.335,2.561c-0.505-0.016-0.892-0.154-1.428-0.385v0.039c0,1.49,1.095,2.734,2.502,3.018
		c-0.259,0.07-0.514,0.108-0.794,0.108c-0.198,0-0.383-0.021-0.57-0.057c0.391,1.223,1.531,2.112,2.878,2.139
		c-1.053,0.824-2.378,1.316-3.82,1.316c-0.249,0-0.493-0.014-0.733-0.043c1.362,0.873,2.98,1.382,4.718,1.382
		c5.66,0,8.754-4.688,8.754-8.755c0-0.133-0.002-0.266-0.007-0.397C14.066,49.207,14.587,48.665,15,48.048"/>
</g>
<g id="linkedin">
	<path fill-rule="evenodd" clip-rule="evenodd" d="M12.499,75h-10C1.119,75,0,73.88,0,72.5v-10C0,61.119,1.119,60,2.5,60h10
		c1.381,0,2.5,1.119,2.5,2.5v10C15,73.88,13.88,75,12.499,75 M4.062,63.124c-0.519,0-0.938,0.42-0.938,0.938
		C3.124,64.58,3.543,65,4.062,65S5,64.58,5,64.062C5,63.544,4.581,63.124,4.062,63.124 M5,65.625H3.124v5.625H5V65.625z
		 M11.875,68.125c0-1.59-0.701-2.5-1.875-2.5c-1.524,0-1.875,0.938-1.875,0.938v-0.938H6.25v5.625h1.875v-3.125
		c0,0-0.027-1.041,1.022-1.041c0.646,0,0.853,0.345,0.853,1.041v3.125h1.875V68.125z"/>
</g>
<g id="dribbble">
	<path d="M0,82.483C0.004,78.363,3.373,75,7.496,75c4.109,0,7.496,3.382,7.504,7.492c0.009,4.128-3.397,7.52-7.54,7.508
		C3.342,89.988-0.005,86.616,0,82.483 M8.717,83.527c-2.258,0.825-3.971,2.039-5.149,4.018c1.928,1.39,3.942,1.682,6.107,0.947
		c0.114-0.039,0.249-0.31,0.218-0.433C9.526,86.573,9.129,85.096,8.717,83.527 M2.728,86.752c1.368-2.046,3.104-3.525,5.41-4.275
		c-0.057-0.153-0.087-0.254-0.131-0.353c-0.307-0.693-0.301-0.665-1.046-0.515c-1.066,0.212-2.137,0.413-3.214,0.557
		c-0.859,0.115-1.731,0.139-2.623,0.204C1.085,84.043,1.629,85.449,2.728,86.752 M7.161,80.398
		c-0.817-1.271-1.579-2.454-2.331-3.623c-1.696,0.601-3.432,2.795-3.509,4.422C3.261,81.16,5.165,80.932,7.161,80.398 M6.093,76.333
		c0.787,1.238,1.55,2.438,2.31,3.634c1.16-0.289,2.755-1.392,3.238-2.229C10.471,76.451,7.969,75.805,6.093,76.333 M8.964,81.146
		c0.049,0.106,0.166,0.294,0.221,0.497c0.122,0.456,0.381,0.586,0.855,0.559c0.783-0.047,1.573-0.016,2.358,0.021
		c0.474,0.023,0.943,0.117,1.414,0.181c0.158-1.178-0.607-3.219-1.285-3.725C11.335,79.502,10.184,80.301,8.964,81.146
		 M11.135,87.74c1.389-0.988,2.23-2.287,2.593-3.897c0.024-0.108-0.117-0.349-0.22-0.374c-1.185-0.296-2.381-0.433-3.6-0.192
		C10.314,84.755,10.714,86.211,11.135,87.74"/>
</g>
<g id="arrow">
	<polygon points="9.723,91.738 8.493,92.861 11.968,96.666 0,96.666 0,98.332 11.968,98.332 8.493,102.138 9.723,103.261 
		14.985,97.499 	"/>
</g>
<g id="arrow--left">
	<polygon points="5.27,178.332 6.5,177.209 3.025,173.404 14.993,173.404 14.993,171.738 3.025,171.738 6.5,167.933 5.27,166.81 
		0.007,172.571 	"/>
</g>
<g id="logo">
	<path d="M7.522,104.935c-4.142,0-7.5,3.358-7.5,7.501c0,4.142,3.357,7.499,7.5,7.499c4.143,0,7.5-3.357,7.5-7.499
		C15.022,108.293,11.665,104.935,7.522,104.935 M11.87,107.9c0,0.025-0.026,0.07-0.081,0.133c-0.136,0.159-1.625,1.817-2.181,2.385
		c0.242,0.622,0.241,1.685,0.155,2.718c-0.121,1.453-0.312,2.038-1.101,2.484s-2.96,0.505-4.046,0.237
		c-1.086-0.267-1.22-1.354-1.324-1.397c-0.425-0.183-0.372-0.849-0.372-0.849c0.297-0.015,0.595,0.357,0.595,0.357
		c0.119-0.193,0.476-0.372,0.476-0.372c0.164,0.58-0.178,0.774-0.148,0.849c0.085,0.214,0.55,0.729,1.278,0.356
		c0.73-0.372,0.76-1.383,0.804-2.633c0.044-1.25,0.372-2.247,1.443-2.484c0.823-0.183,1.421,0.023,1.688,0.151
		c0.74-0.544,2.427-1.748,2.575-1.853c0.065-0.045,0.119-0.076,0.158-0.093h0.08C11.87,107.894,11.87,107.896,11.87,107.9
		L11.87,107.9z"/>
	<path d="M6.967,113.398c-0.238,0.336-0.309,0.649-0.461,1.012c-0.125,0.295-0.347,0.432-0.51,0.675
		c-0.137,0.206,0.302,0.279,0.424,0.282c0.321,0.006,0.675-0.155,0.864-0.408c0.259-0.349,0.286-0.691,0.465-1.062
		c0.095-0.198,0.389-0.578,0.406-0.759C8.187,112.802,7.317,112.903,6.967,113.398"/>
	<path d="M7.824,110.694c-0.171,0.056-0.265,0.239-0.209,0.41c0.055,0.17,0.238,0.264,0.408,0.209
		c0.172-0.056,0.266-0.238,0.21-0.409C8.178,110.732,7.994,110.64,7.824,110.694"/>
</g>
<g id="pinterest">
	<path d="M7.491,120.832c-3.683,0-6.668,2.985-6.668,6.668c0,2.824,1.758,5.238,4.238,6.209c-0.059-0.527-0.111-1.337,0.023-1.912
		c0.121-0.521,0.782-3.314,0.782-3.314s-0.199-0.4-0.199-0.99c0-0.928,0.537-1.619,1.207-1.619c0.569,0,0.844,0.427,0.844,0.939
		c0,0.571-0.364,1.427-0.553,2.22c-0.157,0.663,0.333,1.205,0.988,1.205c1.185,0,2.096-1.25,2.096-3.054
		c0-1.597-1.147-2.713-2.786-2.713c-1.897,0-3.011,1.424-3.011,2.894c0,0.573,0.221,1.188,0.497,1.522
		c0.054,0.065,0.062,0.123,0.046,0.19c-0.05,0.211-0.163,0.664-0.185,0.757c-0.029,0.121-0.097,0.147-0.223,0.089
		c-0.833-0.388-1.354-1.605-1.354-2.583c0-2.104,1.528-4.035,4.406-4.035c2.313,0,4.111,1.648,4.111,3.852
		c0,2.297-1.449,4.146-3.46,4.146c-0.676,0-1.311-0.351-1.528-0.766c0,0-0.334,1.273-0.416,1.586
		c-0.15,0.578-0.557,1.305-0.829,1.748c0.624,0.192,1.287,0.297,1.974,0.297c3.683,0,6.668-2.985,6.668-6.668
		S11.174,120.832,7.491,120.832"/>
</g>
<g id="scroll">
	<g>
		<polygon points="7.501,147.709 0.011,140.867 1.135,139.637 7.501,145.451 13.867,139.637 14.991,140.867 		"/>
	</g>
</g>
<g id="dockyard">
	<g id="dockyard_1_">
		<path d="M0,150.028h0.682c0.577,0,0.943,0.4,0.943,0.966s-0.367,0.966-0.943,0.966H0V150.028z M0.244,150.262v1.466h0.435
			c0.432,0,0.693-0.31,0.693-0.733c0-0.42-0.261-0.732-0.693-0.732H0.244z"/>
		<path d="M3.003,150c0.565,0,0.994,0.429,0.994,0.994s-0.429,0.994-0.994,0.994c-0.565,0-0.995-0.429-0.995-0.994
			S2.438,150,3.003,150z M3.003,151.747c0.423,0,0.741-0.329,0.741-0.753c0-0.42-0.318-0.753-0.741-0.753
			c-0.42,0-0.739,0.333-0.739,0.753C2.264,151.418,2.583,151.747,3.003,151.747z"/>
		<path d="M5.878,151.855c-0.145,0.085-0.321,0.133-0.509,0.133c-0.565,0-0.994-0.429-0.994-0.994S4.804,150,5.369,150
			c0.188,0,0.364,0.048,0.509,0.134v0.286c-0.131-0.11-0.307-0.179-0.509-0.179c-0.42,0-0.738,0.333-0.738,0.753
			c0,0.424,0.315,0.753,0.738,0.753c0.202,0,0.381-0.068,0.509-0.176V151.855z"/>
		<path d="M6.398,150.028h0.244v0.946l0.722-0.946h0.293l-0.598,0.79l0.625,1.142H7.395l-0.506-0.938l-0.247,0.31v0.628H6.398
			V150.028L6.398,150.028z"/>
		<path d="M8.526,151.105l-0.64-1.077h0.278l0.483,0.832l0.485-0.832h0.281l-0.645,1.08v0.852H8.526V151.105L8.526,151.105z"/>
		<path d="M10.713,151.42H9.932l-0.196,0.54H9.46l0.728-1.932h0.275l0.727,1.932h-0.275L10.713,151.42z M10.014,151.185h0.619
			l-0.31-0.835L10.014,151.185z"/>
		<path d="M11.608,150.028h0.571c0.36,0,0.608,0.202,0.608,0.543c0,0.278-0.174,0.44-0.398,0.494c0.23,0.107,0.43,0.438,0.5,0.895
			h-0.253c-0.088-0.479-0.329-0.807-0.582-0.807h-0.202v0.807h-0.244V150.028z M12.179,150.262h-0.327v0.659h0.327
			c0.202,0,0.354-0.117,0.354-0.327S12.381,150.262,12.179,150.262z"/>
		<path d="M13.375,150.028h0.682c0.576,0,0.943,0.4,0.943,0.966s-0.367,0.966-0.943,0.966h-0.682V150.028z M13.62,150.262v1.466
			h0.435c0.432,0,0.692-0.31,0.692-0.733c0-0.42-0.261-0.732-0.692-0.732H13.62z"/>
	</g>
</g>
</svg>
