<?xml version="1.0" encoding="utf-8"?>
<!-- Generator: Adobe Illustrator 16.0.3, SVG Export Plug-In . SVG Version: 6.00 Build 0)  -->
<!DOCTYPE svg PUBLIC "-//W3C//DTD SVG 1.1//EN" "http://www.w3.org/Graphics/SVG/1.1/DTD/svg11.dtd">
<svg version="1.1" id="Layer_1" xmlns="http://www.w3.org/2000/svg" xmlns:xlink="http://www.w3.org/1999/xlink" x="0px" y="0px"
	 width="165px" height="40px" viewBox="-7.5 0 165 40" enable-background="new -7.5 0 165 40" xml:space="preserve">
<g>
	<path fill="#FFFFFF" d="M20.474,20.11c-0.742,0.235-1.783,1.083-2.569,1.437c-0.913,0.41-1.762,0.632-2.573,1.117
		c-1.769,1.064-3.692,1.67-5.498,2.643C4.173,28.357-1.961,30.398-7.5,33.533c4.132-5.652,11.146-8.258,17.101-11.382
		c0.989-0.519,1.819-1.012,2.749-1.617c0.779-0.506,1.801-0.899,2.888-1.278c0.885-0.307,1.672-0.423,2.561-0.383
		C18.704,18.913,19.605,19.305,20.474,20.11"/>
	<path fill="#FFFFFF" d="M26.53,22.508c-0.739,0.234-1.781,1.084-2.567,1.438c-0.912,0.41-1.763,0.631-2.573,1.117
		c-1.77,1.064-3.694,1.668-5.499,2.643c-5.661,3.051-11.795,5.09-17.333,8.227c4.133-5.656,11.145-8.258,17.099-11.381
		c0.987-0.518,1.82-1.014,2.75-1.617c0.779-0.506,1.798-0.901,2.888-1.279c0.885-0.308,1.671-0.425,2.562-0.384
		C24.763,21.312,25.664,21.7,26.53,22.508"/>
	<path fill="#FFFFFF" d="M32.716,25.029c-0.743,0.236-1.784,1.086-2.569,1.438c-0.913,0.412-1.766,0.631-2.574,1.119
		c-1.771,1.064-3.694,1.67-5.496,2.641c-5.664,3.053-11.797,5.092-17.335,8.229c4.131-5.654,11.145-8.258,17.101-11.383
		c0.987-0.52,1.817-1.012,2.75-1.617c0.779-0.506,1.797-0.898,2.885-1.279c0.886-0.307,1.671-0.42,2.562-0.383
		C30.945,23.836,31.847,24.227,32.716,25.029"/>
	<path fill="#FFFFFF" d="M5.688,18.344c0.74-0.234,1.782-1.083,2.569-1.436c0.912-0.41,1.764-0.633,2.573-1.118
		c1.767-1.064,3.692-1.669,5.498-2.642c5.66-3.052,11.795-5.09,17.334-8.228c-4.134,5.654-11.146,8.258-17.1,11.382
		c-0.99,0.519-1.819,1.013-2.751,1.617c-0.779,0.506-1.799,0.899-2.888,1.278c-0.886,0.308-1.67,0.424-2.562,0.384
		C7.456,19.54,6.555,19.149,5.688,18.344"/>
	<path fill="#FFFFFF" d="M-0.37,15.946c0.739-0.234,1.781-1.083,2.566-1.437c0.915-0.411,1.766-0.63,2.574-1.118
		c1.768-1.063,3.693-1.668,5.497-2.64C15.93,7.698,22.063,5.66,27.602,2.525c-4.133,5.653-11.146,8.256-17.098,11.38
		c-0.988,0.518-1.821,1.012-2.75,1.615c-0.778,0.508-1.8,0.9-2.889,1.278c-0.883,0.31-1.668,0.425-2.562,0.387
		C1.398,17.143,0.497,16.752-0.37,15.946"/>
	<path fill="#FFFFFF" d="M-6.556,13.423c0.744-0.235,1.784-1.082,2.569-1.437c0.915-0.412,1.765-0.631,2.576-1.119
		c1.769-1.062,3.692-1.668,5.497-2.641C9.746,5.174,15.879,3.136,21.42,0C17.287,5.653,10.276,8.257,4.319,11.382
		c-0.987,0.518-1.818,1.012-2.751,1.616c-0.777,0.506-1.797,0.898-2.885,1.278c-0.889,0.308-1.672,0.425-2.562,0.386
		C-4.786,14.62-5.687,14.229-6.556,13.423"/>
</g>
<g>
	<path fill="#FFFFFF" d="M42.291,26.096l-2.247,5.734h-1.498l-2.848-7.262h1.35l2.246,5.732l2.249-5.732h1.497l2.247,5.732
		l2.248-5.732h1.349l-2.847,7.262h-1.498L42.291,26.096z"/>
	<path fill="#FFFFFF" d="M57.979,31.83H56.78v-7.262h1.199V31.83z"/>
	<path fill="#FFFFFF" d="M65.875,31.83v-7.262h6.894c0.999,0.082,1.497,0.775,1.497,2.076c0,0.697-0.145,1.215-0.438,1.559
		c0.293,0.348,0.438,0.871,0.438,1.572l-0.005,2.055h-1.043v-2.055c0-0.717-0.25-1.076-0.749-1.076h-5.396v3.131H65.875
		L65.875,31.83z M67.073,27.697h5.396c0.5,0,0.749-0.35,0.749-1.053c0-0.717-0.25-1.076-0.749-1.076h-5.396V27.697z"/>
	<path fill="#FFFFFF" d="M89.953,28.699h-6.592v2.127h7.191v1.004h-8.39v-7.264h8.39v1.002h-7.191v2.129h6.592V28.699z"/>
	<path fill="#FFFFFF" d="M99.648,30.826h6.592v1.004h-7.792v-7.264h1.2V30.826z"/>
	<path fill="#FFFFFF" d="M121.93,28.699h-6.594v2.127h7.192v1.004h-8.392v-7.264h8.392v1.002h-7.192v2.129h6.594V28.699z"/>
	<path fill="#FFFFFF" d="M130.423,26.82h0.007l-0.007-0.32c0.102-1.123,0.602-1.768,1.5-1.934h6.594
		c0.94,0.158,1.439,0.908,1.49,2.252h-1.199c-0.048-0.834-0.345-1.252-0.893-1.252h-5.394c-0.513,0-0.81,0.377-0.894,1.129
		c0.095,0.666,0.392,1,0.887,1h6.006c0.896,0.168,1.393,0.793,1.491,1.879l-0.005,0.252c-0.097,1.172-0.593,1.84-1.49,2.004h-6.594
		c-0.943-0.158-1.441-0.91-1.493-2.256h1.198c0.048,0.836,0.347,1.252,0.895,1.252h5.393c0.512,0,0.812-0.373,0.899-1.125
		c-0.095-0.67-0.392-1.002-0.893-1.002h-6.005C131.021,28.531,130.524,27.908,130.423,26.82z"/>
	<path fill="#FFFFFF" d="M147.91,26.82h0.007l-0.007-0.32c0.102-1.123,0.6-1.768,1.496-1.934H156
		c0.943,0.158,1.441,0.908,1.492,2.252h-1.197c-0.05-0.834-0.347-1.252-0.895-1.252h-5.395c-0.509,0-0.807,0.377-0.893,1.129
		c0.098,0.666,0.393,1,0.889,1h6.005c0.896,0.168,1.394,0.793,1.493,1.879l-0.008,0.252c-0.096,1.172-0.592,1.84-1.492,2.004h-6.594
		c-0.94-0.158-1.439-0.91-1.489-2.256h1.197c0.049,0.836,0.344,1.252,0.894,1.252h5.395c0.512,0,0.812-0.373,0.898-1.125
		c-0.096-0.67-0.391-1.002-0.894-1.002h-6.005C148.508,28.531,148.012,27.908,147.91,26.82z"/>
</g>
<g>
	<path fill="#FFFFFF" d="M46.722,18.118c0.65,0,0.977-0.391,0.977-1.174c0-0.746-0.32-1.12-0.958-1.12h-8.306
		c-2.071,0-3.108-1.378-3.108-4.136c0-2.684,1.036-4.027,3.108-4.027h9.84c0.747,0.013,1.48,0.373,2.203,1.084
		c0.313,0.312,0.53,0.722,0.649,1.228c0.073,0.35,0.115,0.56,0.128,0.633H40.147c-0.614,0-0.92,0.354-0.92,1.064
		c0,0.723,0.306,1.083,0.92,1.083h8.164c2.142,0,3.215,1.344,3.215,4.028c0,2.841-1.073,4.262-3.215,4.262h-8.975
		c-1.711-0.012-2.818-0.366-3.323-1.064c-0.456-0.591-0.688-1.212-0.688-1.861L46.722,18.118L46.722,18.118z"/>
	<path fill="#FFFFFF" d="M58.162,11.039c-0.387,0-0.705,0.128-0.958,0.38c-0.218,0.252-0.332,0.578-0.344,0.975v4.01
		c0.049,0.409,0.169,0.698,0.361,0.866c0.265,0.242,0.584,0.38,0.958,0.416h11.557c0,0.386-0.04,0.711-0.124,0.975
		c-0.146,0.494-0.482,1.018-1.012,1.572c-0.566,0.541-1.512,0.818-2.835,0.83l-8.577-0.019c-1.482-0.048-2.584-0.391-3.305-1.03
		c-0.76-0.663-1.139-1.57-1.139-2.727v-5.868c0-1.145,0.385-2.06,1.154-2.746c0.759-0.649,1.85-0.98,3.27-0.993h8.669
		c0.998,0,1.915,0.362,2.745,1.084c0.421,0.36,0.746,0.855,0.976,1.481c0.12,0.421,0.18,0.687,0.18,0.794H58.162z"/>
	<path fill="#FFFFFF" d="M95.254,7.825h5.219l7.186,13.074H103.2l-1.248-2.311h-8.128l-1.171,2.311h-4.479L95.254,7.825z
		 M95.326,15.771h5.128l-2.562-4.84h-0.073L95.326,15.771z"/>
	<path fill="#FFFFFF" d="M105.768,7.825h15.277v3.466h-5.635v9.608h-4.007v-9.606h-5.636V7.825z"/>
	<path fill="#FFFFFF" d="M127.92,11.039c-0.387,0-0.704,0.128-0.958,0.38c-0.214,0.252-0.331,0.578-0.342,0.975v4.01
		c0.048,0.409,0.167,0.698,0.361,0.866c0.263,0.242,0.582,0.38,0.956,0.416h11.559c0,0.386-0.043,0.711-0.127,0.975
		c-0.144,0.494-0.482,1.018-1.012,1.572c-0.565,0.541-1.513,0.818-2.834,0.83l-8.579-0.019c-1.479-0.048-2.584-0.391-3.305-1.03
		c-0.758-0.663-1.138-1.57-1.138-2.727v-5.868c0-1.145,0.386-2.06,1.155-2.746c0.759-0.649,1.85-0.98,3.271-0.993h8.668
		c0.999,0,1.914,0.362,2.745,1.084c0.422,0.36,0.747,0.855,0.977,1.481c0.118,0.421,0.18,0.687,0.18,0.794H127.92z"/>
	<path fill="#FFFFFF" d="M140.954,7.825h4.01v4.658h8.451V7.825h4.01v13.074h-4.01v-4.82h-8.451v4.82h-4.01V7.825z"/>
	<g>
		<g>
			<path fill="#FFFFFF" d="M85.106,7.877c0.548,0,1.012,0.138,1.398,0.41c0.382,0.274,0.695,0.607,0.935,1.001
				c0.238,0.394,0.414,0.812,0.526,1.256c0.111,0.445,0.165,0.846,0.165,1.205c0,0.648-0.131,1.213-0.396,1.691
				c-0.264,0.479-0.627,0.89-1.089,1.231c-0.462,0.343-1,0.611-1.613,0.809c-0.618,0.195-1.285,0.328-2.003,0.396l5.026,4.846
				h-3.771l-7.999-6.819v-0.54h8.437c0.272-0.255,0.444-0.444,0.515-0.562l0.306-0.745v-0.514c-0.018-0.033-0.065-0.128-0.142-0.281
				c-0.076-0.154-0.184-0.324-0.322-0.512c-0.135-0.188-0.264-0.282-0.384-0.282H74.338v10.255h-3.153V7.877H85.106z"/>
			<path fill="#FFFFFF" d="M84.197,20.962l-8.15-6.95v-0.889h8.579c0.212-0.2,0.347-0.356,0.392-0.43l0,0l0.286-0.686V11.6
				c-0.023-0.05-0.064-0.127-0.116-0.231l0,0c-0.068-0.139-0.167-0.298-0.301-0.479l0,0c-0.056-0.081-0.109-0.134-0.146-0.16l0,0
				c-0.037-0.027-0.043-0.024-0.043-0.024l0,0H74.577v10.257h-3.632V7.637h14.161v0.24v0.239H71.423v12.369h2.675V10.227h10.598
				c0.256,0.009,0.425,0.173,0.576,0.381l0,0c0.144,0.196,0.259,0.377,0.344,0.547l0,0c0.074,0.155,0.125,0.249,0.14,0.28l0,0
				l0.024,0.05v0.618l-0.329,0.803l-0.008,0.014c-0.098,0.168-0.275,0.354-0.558,0.62l0,0l-0.068,0.064h-8.289v0.188l7.849,6.692
				h3.087l-4.974-4.798l0.521-0.048c0.702-0.067,1.351-0.196,1.949-0.387l0,0c0.592-0.19,1.104-0.447,1.544-0.772l0,0
				c0.437-0.323,0.774-0.705,1.023-1.154l0,0c0.24-0.438,0.367-0.959,0.367-1.576l0,0c0-0.336-0.052-0.718-0.159-1.146l0,0
				c-0.107-0.421-0.272-0.818-0.498-1.191l0,0c-0.224-0.365-0.512-0.673-0.87-0.93l0,0c-0.342-0.24-0.752-0.365-1.261-0.366l0,0
				V7.877v-0.24c0.588,0,1.108,0.151,1.538,0.456l0,0c0.409,0.291,0.745,0.648,1.001,1.071l0,0c0.251,0.412,0.437,0.855,0.552,1.323
				l0,0c0.116,0.459,0.175,0.879,0.177,1.263l0,0c0,0.682-0.14,1.289-0.43,1.809l0,0c-0.281,0.509-0.668,0.947-1.157,1.307l0,0
				c-0.482,0.359-1.045,0.641-1.684,0.844l0,0c-0.485,0.155-0.999,0.271-1.542,0.348l0,0l5.087,4.907h-4.451V20.962z"/>
		</g>
	</g>
</g>
</svg>
