<?xml version="1.0" encoding="utf-8"?>
<!-- Generator: Adobe Illustrator 16.0.3, SVG Export Plug-In . SVG Version: 6.00 Build 0)  -->
<!DOCTYPE svg PUBLIC "-//W3C//DTD SVG 1.1//EN" "http://www.w3.org/Graphics/SVG/1.1/DTD/svg11.dtd">
<svg version="1.1" id="Layer_1" xmlns="http://www.w3.org/2000/svg" xmlns:xlink="http://www.w3.org/1999/xlink" x="0px" y="0px"
	 width="62px" height="26px" viewBox="0 0 62 26" enable-background="new 0 0 62 26" xml:space="preserve">
<path fill="#FFFFFF" d="M52.648,18.318c-2.938,0-5.318-2.381-5.318-5.318s2.38-5.318,5.318-5.318c1.292,0,2.478,0.462,3.399,1.229
	l5.439-5.439C59.167,1.318,56.062,0,52.648,0c-7.179,0-13,5.82-13,13c0,0.013,0.001,0.026,0.001,0.04l-5.16-0.003l2.583,4.52
	c-0.8,0.483-1.739,0.762-2.742,0.762c-2.937,0-5.318-2.381-5.318-5.318s2.382-5.318,5.318-5.318c0.962,0,1.864,0.257,2.643,0.704
	l3.846-6.649C38.908,0.634,36.694,0,34.33,0c-4.586,0-8.614,2.377-10.928,5.963l-0.014-0.007l-0.165,0.286
	c-0.067,0.11-0.13,0.224-0.194,0.336l-2.804,4.847l-0.5-0.865l-4.512-7.812l-4.672,7.92L4.381,0L0,7.672l6.156,10.64l-0.003,0.007
	l4.376,7.652l4.701-7.876l0.596,0.938l-0.004,0.007l2.234,3.507l2.164,3.396l3.382-5.602C25.944,23.758,29.875,26,34.33,26
	c3.573,0,6.809-1.442,9.159-3.775C45.839,24.558,49.075,26,52.648,26c3.414,0,6.519-1.317,8.839-3.471l-5.439-5.439
	C55.126,17.857,53.941,18.318,52.648,18.318"/>
</svg>
