<?xml version="1.0" encoding="utf-8"?>
<!-- Generator: Adobe Illustrator 16.0.3, SVG Export Plug-In . SVG Version: 6.00 Build 0)  -->
<!DOCTYPE svg PUBLIC "-//W3C//DTD SVG 1.1//EN" "http://www.w3.org/Graphics/SVG/1.1/DTD/svg11.dtd">
<svg version="1.1" id="Layer_1" xmlns="http://www.w3.org/2000/svg" xmlns:xlink="http://www.w3.org/1999/xlink" x="0px" y="0px"
	 width="37.967px" height="37.759px" viewBox="0 0 37.967 37.759" enable-background="new 0 0 37.967 37.759" xml:space="preserve">
<path fill="#FFE400" d="M18.962,17.487c3.859,0,7-3.141,7-7c0-2.654-1.485-4.968-3.668-6.155c0.115-0.189,0.18-0.458,0.177-0.845
	C22.451,1.566,20.904,0,18.983,0c-1.923,0-3.487,1.564-3.487,3.487c0,0.374,0.061,0.639,0.171,0.827
	c-2.203,1.181-3.705,3.504-3.705,6.173C11.962,14.346,15.103,17.487,18.962,17.487 M23.1,7.684c0.442,0.652,0.712,1.42,0.806,2.241
	C21.602,9.7,19.963,8.844,19.562,7.96C20.62,7.812,21.806,7.716,23.1,7.684 M16.496,3.487C16.496,2.116,17.612,1,18.983,1
	s2.487,1.116,2.487,2.487c0,0.153-0.07,0.287-0.182,0.406c-0.729-0.258-1.511-0.406-2.327-0.406c-0.805,0-1.574,0.143-2.293,0.394
	C16.564,3.764,16.496,3.635,16.496,3.487 M18.962,5.487c1.246,0,2.373,0.475,3.249,1.232c-3.027,0.158-5.947,0.713-7.751,1.632
	C15.263,6.664,16.972,5.487,18.962,5.487 M14.03,9.81c0.684-0.626,2.246-1.27,4.528-1.687c0.453,1.447,2.582,2.562,5.357,2.81
	c-0.229,2.545-2.35,4.554-4.954,4.554c-2.757,0-5-2.243-5-5C13.962,10.254,14,10.033,14.03,9.81"/>
<path fill="#FFE400" d="M37.925,36.719c-0.41-10.224-8.74-18.232-18.963-18.232C8.744,18.487,0.415,26.491,0,36.71v1.049h37.967
	L37.925,36.719z M21.718,26.831c-0.343-0.344-0.687-0.688-1.03-1.03c1.88-0.689,3.233-2.452,3.309-4.55
	c0.818,0.253,1.61,0.563,2.371,0.931L21.718,26.831z M15.962,26.831c-1.524-1.524-3.048-3.049-4.573-4.573
	c0.811-0.403,1.661-0.735,2.539-1.006c0.073,2.03,1.337,3.757,3.123,4.491L15.962,26.831z M15.029,21.072
	c0-0.044,0.022-0.078,0.028-0.119c1.256-0.294,2.559-0.467,3.905-0.467c1.347,0,2.649,0.173,3.906,0.467
	c0.006,0.041,0.026,0.075,0.026,0.119c0,2.168-1.764,3.933-3.933,3.933C16.794,25.005,15.029,23.24,15.029,21.072 M2.071,35.761
	c0.561-5.603,3.805-10.346,8.407-13l5.131,5.131c0.097,0.098,0.204,0.132,0.31,0.139c0.015,0.002,0.029,0.005,0.043,0.006
	c0.015-0.001,0.029-0.004,0.043-0.006c0.106-0.007,0.214-0.041,0.311-0.139c0.616-0.616,1.232-1.231,1.848-1.849
	c0.262,0.042,0.524,0.081,0.798,0.081c0.198,0,0.385-0.036,0.577-0.059c0.607,0.609,1.217,1.218,1.826,1.826
	c0.097,0.098,0.203,0.132,0.31,0.139c0.015,0.002,0.029,0.005,0.043,0.006c0.015-0.001,0.029-0.004,0.043-0.006
	c0.106-0.007,0.214-0.041,0.312-0.139l5.219-5.219c4.684,2.635,7.995,7.42,8.562,13.086L2.071,35.761z"/>
<path fill="#FFE400" d="M16.962,29.717c-0.276,0-0.5,0.224-0.5,0.5s0.224,0.5,0.5,0.5c0.276,0,0.5-0.224,0.5-0.5
	S17.238,29.717,16.962,29.717"/>
<path fill="#FFE400" d="M16.962,33.036c-0.276,0-0.5,0.224-0.5,0.5s0.224,0.5,0.5,0.5c0.276,0,0.5-0.224,0.5-0.5
	S17.238,33.036,16.962,33.036"/>
<path fill="#FFE400" d="M20.718,29.717c-0.275,0-0.5,0.224-0.5,0.5s0.225,0.5,0.5,0.5c0.276,0,0.5-0.224,0.5-0.5
	S20.994,29.717,20.718,29.717"/>
<path fill="#FFE400" d="M20.718,33.036c-0.275,0-0.5,0.224-0.5,0.5s0.225,0.5,0.5,0.5c0.276,0,0.5-0.224,0.5-0.5
	S20.994,33.036,20.718,33.036"/>
<rect fill="none" width="37.967" height="37.759"/>
</svg>
