<?xml version="1.0" encoding="utf-8"?>
<!-- Generator: Adobe Illustrator 16.0.3, SVG Export Plug-In . SVG Version: 6.00 Build 0)  -->
<!DOCTYPE svg PUBLIC "-//W3C//DTD SVG 1.1//EN" "http://www.w3.org/Graphics/SVG/1.1/DTD/svg11.dtd">
<svg version="1.1" id="Layer_1" xmlns="http://www.w3.org/2000/svg" xmlns:xlink="http://www.w3.org/1999/xlink" x="0px" y="0px"
	 width="37.967px" height="34.272px" viewBox="0 0 37.967 34.272" enable-background="new 0 0 37.967 34.272" xml:space="preserve">
<path fill="#FFE400" d="M18.962,14c3.86,0,7-3.141,7-7s-3.14-7-7-7c-3.86,0-7,3.141-7,7S15.102,14,18.962,14 M18.962,2
	c2.757,0,5,2.243,5,5s-2.243,5-5,5s-5-2.243-5-5S16.205,2,18.962,2"/>
<path fill="#FFE400" d="M37.924,33.232C37.515,23.009,29.186,15,18.962,15C8.743,15,0.414,23.005,0,33.225v1.038l37.966,0.01
	L37.924,33.232z M18.462,17.023v15.25L2.07,32.274C2.92,23.796,9.896,17.271,18.462,17.023 M19.462,32.273v-15.25
	c8.567,0.248,15.543,6.771,16.392,15.249L19.462,32.273z"/>
<path fill="#FFE400" d="M22.096,23.637l-0.484-0.012l-0.024,0.605c0,1.93,1.57,3.5,3.5,3.5s3.5-1.57,3.5-3.5l-0.024-0.594H22.096z
	 M25.087,26.73c-1.246,0-2.281-0.916-2.47-2.094h4.937C27.359,25.822,26.327,26.73,25.087,26.73"/>
<path fill="#FFE400" d="M15.962,21.55c0.276,0,0.5-0.224,0.5-0.5s-0.224-0.5-0.5-0.5s-0.5,0.224-0.5,0.5S15.686,21.55,15.962,21.55"
	/>
<path fill="#FFE400" d="M15.962,24.55c-0.276,0-0.5,0.224-0.5,0.5s0.224,0.5,0.5,0.5s0.5-0.224,0.5-0.5S16.238,24.55,15.962,24.55"
	/>
<path fill="#FFE400" d="M15.962,28.55c-0.276,0-0.5,0.224-0.5,0.5s0.224,0.5,0.5,0.5s0.5-0.224,0.5-0.5S16.238,28.55,15.962,28.55"
	/>
<rect y="0" fill="none" width="37.966" height="34.272"/>
</svg>
